<svg xmlns="http://www.w3.org/2000/svg" viewBox="0 0 24 24">
  <path d="M21.122,2.879c-1.133-1.134-3.111-1.133-4.243,0l-0.902,0.902l-1.27-1.195c-0.756-0.756-2.075-0.755-2.828,0l-3.521,3.52 c-0.503,0.502-1.379,0.502-1.881,0L5.063,7.52c1.258,1.258,3.453,1.258,4.709,0l3.542-3.499l1.248,1.175L3.654,16.104l-0.879,5.121 l5.121-0.879L21.121,7.122C21.688,6.555,22,5.801,22,5S21.688,3.445,21.122,2.879z M6.932,18.482l-1.707,0.293l0.293-1.707 l1.567-1.567l1.414,1.414L6.932,18.482z M19.707,5.707L18.89,6.524l-1.457-1.371l0.86-0.86c0.377-0.377,1.036-0.378,1.414,0.001 C19.896,4.482,20,4.733,20,5S19.896,5.518,19.707,5.707z" fill="#FFFFFF" />
</svg>