<svg xmlns="http://www.w3.org/2000/svg" viewBox="0 0 50 50" width='20px'>
  <path d="M25 2C17.832031 2 12 7.832031 12 15C12 20.078125 15.105469 26.347656 18.140625 31.492188C21.171875 36.636719 24.203125 40.609375 24.203125 40.609375L25 41.644531L25.796875 40.609375C25.796875 40.609375 28.828125 36.636719 31.859375 31.492188C34.894531 26.347656 38 20.078125 38 15C38 7.832031 32.167969 2 25 2 Z M 25 4C31.085938 4 36 8.914063 36 15C36 19.214844 33.105469 25.445313 30.140625 30.476563C27.570313 34.832031 25.644531 37.339844 25 38.199219C24.355469 37.339844 22.429688 34.832031 19.859375 30.476563C16.894531 25.445313 14 19.214844 14 15C14 8.914063 18.914063 4 25 4 Z M 25 10C22.25 10 20 12.25 20 15C20 17.75 22.25 20 25 20C27.75 20 30 17.75 30 15C30 12.25 27.75 10 25 10 Z M 25 12C26.667969 12 28 13.332031 28 15C28 16.667969 26.667969 18 25 18C23.332031 18 22 16.667969 22 15C22 13.332031 23.332031 12 25 12 Z M 7.296875 32L1.578125 48L48.421875 48L42.703125 32L35.050781 32C34.660156 32.6875 34.269531 33.355469 33.878906 34L41.296875 34L45.578125 46L4.421875 46L8.703125 34L16.121094 34C15.730469 33.355469 15.339844 32.6875 14.949219 32Z" fill="#FFFFFF" />
</svg>