<svg xmlns="http://www.w3.org/2000/svg" viewBox="0 0 24 24">
  <path d="M12 2C6.4886661 2 2 6.4886661 2 12C2 17.511334 6.4886661 22 12 22C12.490323 22 12.968789 21.95337 13.441406 21.884766C14.544132 23.175765 16.179371 24 18 24C21.3 24 24 21.3 24 18C24 14.7 21.3 12 18 12C14.7 12 12 14.7 12 18C12 18.694172 12.126304 19.358943 12.345703 19.980469C12.229904 19.985374 12.117036 20 12 20C7.5693339 20 4 16.430666 4 12C4 7.5693339 7.5693339 4 12 4C13.491096 4 14.878325 4.410121 16.070312 5.1171875L15.169922 6.0175781C14.806922 6.3795781 15.063172 7 15.576172 7L19.425781 7C19.742781 7 20 6.7427813 20 6.4257812L20 2.5761719C20 2.0631719 19.379578 1.8069219 19.017578 2.1699219L17.517578 3.6699219C15.934236 2.6194565 14.037589 2 12 2 z M 20.800781 15.708984C21.054031 15.708984 21.3065 15.8065 21.5 16C21.887 16.387 21.887 17.013391 21.5 17.400391L18.199219 20.699219C17.812219 21.086219 17.187781 21.086219 16.800781 20.699219L15 18.900391C14.613 18.513391 14.613 17.887 15 17.5C15.387 17.113 16.013391 17.113 16.400391 17.5L17.5 18.599609L20.099609 16C20.293109 15.8065 20.547531 15.708984 20.800781 15.708984 z" fill="#FFFFFF" />
</svg>