<svg xmlns="http://www.w3.org/2000/svg" viewBox="0 0 30 30">
  <path d="M14 2C13.448 2 13 2.448 13 3L13 4.1914062C7.8890453 5.1364053 4 9.6205775 4 15C4 21.063288 8.9367124 26 15 26C21.063288 26 26 21.063288 26 15C26 9.6205775 22.110955 5.1364053 17 4.1914062L17 3C17 2.448 16.552 2 16 2L14 2 z M 22.990234 3.9902344 A 1.0001 1.0001 0 0 0 22.292969 5.7070312L23.292969 6.7070312 A 1.0001 1.0001 0 1 0 24.707031 5.2929688L23.707031 4.2929688 A 1.0001 1.0001 0 0 0 22.990234 3.9902344 z M 15 6C19.982407 6 24 10.017593 24 15C24 19.982407 19.982407 24 15 24C10.017593 24 6 19.982407 6 15C6 10.017593 10.017593 6 15 6 z M 14.984375 7.9863281 A 1.0001 1.0001 0 0 0 14 9L14 13.271484 A 2 2 0 0 0 13 15 A 2 2 0 0 0 14 16.730469L14 18 A 1.0001 1.0001 0 1 0 16 18L16 16.728516 A 2 2 0 0 0 17 15 A 2 2 0 0 0 16 13.269531L16 9 A 1.0001 1.0001 0 0 0 14.984375 7.9863281 z" fill="#ED1B2F" />
</svg>