<svg xmlns="http://www.w3.org/2000/svg" viewBox="0 0 24 24">
  <path d="M12 0C5.4 0 0 5.4 0 12C0 18.6 5.4 24 12 24C18.6 24 24 18.6 24 12C24 5.4 18.6 0 12 0 z M 12 2C17.5 2 22 6.5 22 12C22 17.5 17.5 22 12 22C6.5 22 2 17.5 2 12C2 6.5 6.5 2 12 2 z M 11.800781 4L11.800781 5.8007812C10.700781 5.9007812 9.8992187 6.3003906 9.1992188 6.9003906C8.4992188 7.6003906 8.1992188 8.3007812 8.1992188 9.3007812C8.1992187 10.300781 8.4996094 11.099219 9.0996094 11.699219C9.6996094 12.199219 10.7 12.699219 12 13.199219C12.6 13.399219 12.999219 13.700391 13.199219 13.900391C13.399219 14.100391 13.5 14.500391 13.5 14.900391C13.5 15.300391 13.399219 15.600781 13.199219 15.800781C12.999219 16.000781 12.699219 16.099609 12.199219 16.099609C11.599219 16.099609 11.200391 15.999219 10.900391 15.699219C10.600391 15.399219 10.400391 14.900781 10.400391 14.300781L7.5996094 14.300781L7.5996094 14.400391C7.5996094 15.700391 7.9992187 16.599219 8.6992188 17.199219C9.3992188 17.799219 10.4 18.200781 11.5 18.300781L11.5 20L12.800781 20L12.800781 18.400391C13.900781 18.300391 14.800391 18.000391 15.400391 17.400391C16.000391 16.800391 16.300781 16 16.300781 15C16.300781 13.9 15.900781 13.1 15.300781 12.5C14.700781 11.9 13.700391 11.4 12.400391 11C11.800391 10.7 11.399219 10.399219 11.199219 10.199219C10.999219 9.9992187 10.900391 9.7007813 10.900391 9.3007812C10.900391 8.9007812 10.999219 8.6007813 11.199219 8.3007812C11.399219 8.0007813 11.699219 7.9003906 12.199219 7.9003906C12.599219 7.9003906 12.899219 8.1007813 13.199219 8.3007812C13.499219 8.5007812 13.599609 8.9 13.599609 9.5L16.400391 9.5C16.400391 8.5 16.1 7.7 15.5 7C14.9 6.3 14 5.9007812 13 5.8007812L13 4L11.800781 4 z" fill="#0AB305" />
</svg>