<svg xmlns="http://www.w3.org/2000/svg" viewBox="0 0 24 24">
  <path d="M5 3C3.895 3 3 3.895 3 5L3 15C3 16.105 3.895 17 5 17L9 17L9 9C9 6.791 10.791 5 13 5C13 3.895 12.105 3 11 3L5 3 z M 5.5 5L6.5 5C6.776 5 7 5.224 7 5.5L7 6.5C7 6.776 6.776 7 6.5 7L5.5 7C5.224 7 5 6.776 5 6.5L5 5.5C5 5.224 5.224 5 5.5 5 z M 13 7C11.895 7 11 7.895 11 9L11 19C11 20.105 11.895 21 13 21L19 21C20.105 21 21 20.105 21 19L21 9C21 7.895 20.105 7 19 7L13 7 z M 5.5 9L6.5 9C6.776 9 7 9.224 7 9.5L7 10.5C7 10.776 6.776 11 6.5 11L5.5 11C5.224 11 5 10.776 5 10.5L5 9.5C5 9.224 5.224 9 5.5 9 z M 13.5 9L14.5 9C14.776 9 15 9.224 15 9.5L15 10.5C15 10.776 14.776 11 14.5 11L13.5 11C13.224 11 13 10.776 13 10.5L13 9.5C13 9.224 13.224 9 13.5 9 z M 17.5 9L18.5 9C18.776 9 19 9.224 19 9.5L19 10.5C19 10.776 18.776 11 18.5 11L17.5 11C17.224 11 17 10.776 17 10.5L17 9.5C17 9.224 17.224 9 17.5 9 z M 5.5 13L6.5 13C6.776 13 7 13.224 7 13.5L7 14.5C7 14.776 6.776 15 6.5 15L5.5 15C5.224 15 5 14.776 5 14.5L5 13.5C5 13.224 5.224 13 5.5 13 z M 13.5 13L14.5 13C14.776 13 15 13.224 15 13.5L15 14.5C15 14.776 14.776 15 14.5 15L13.5 15C13.224 15 13 14.776 13 14.5L13 13.5C13 13.224 13.224 13 13.5 13 z M 17.5 13L18.5 13C18.776 13 19 13.224 19 13.5L19 14.5C19 14.776 18.776 15 18.5 15L17.5 15C17.224 15 17 14.776 17 14.5L17 13.5C17 13.224 17.224 13 17.5 13 z M 13.5 17L14.5 17C14.776 17 15 17.224 15 17.5L15 18.5C15 18.776 14.776 19 14.5 19L13.5 19C13.224 19 13 18.776 13 18.5L13 17.5C13 17.224 13.224 17 13.5 17 z M 17.5 17L18.5 17C18.776 17 19 17.224 19 17.5L19 18.5C19 18.776 18.776 19 18.5 19L17.5 19C17.224 19 17 18.776 17 18.5L17 17.5C17 17.224 17.224 17 17.5 17 z" fill="#A6A6A6" />
</svg>