<svg xmlns="http://www.w3.org/2000/svg" viewBox="0 0 32 32">
  <path d="M13 3L13 5L19 5L19 3 Z M 24.71875 5.28125L23.28125 6.71875L24.0625 7.5L23.03125 8.5625C21.125 6.972656 18.667969 6 16 6C9.9375 6 5 10.9375 5 17C5 23.0625 9.9375 28 16 28C22.0625 28 27 23.0625 27 17C27 14.332031 26.027344 11.875 24.4375 9.96875L25.5 8.9375L26.28125 9.71875L27.71875 8.28125 Z M 16 8C20.980469 8 25 12.019531 25 17C25 21.980469 20.980469 26 16 26C11.019531 26 7 21.980469 7 17C7 12.019531 11.019531 8 16 8 Z M 11.71875 11.28125L10.28125 12.71875L14.0625 16.5C14.019531 16.660156 14 16.828125 14 17C14 18.105469 14.894531 19 16 19C17.105469 19 18 18.105469 18 17C18 15.894531 17.105469 15 16 15C15.828125 15 15.660156 15.019531 15.5 15.0625Z" fill="#A6A6A6" />
</svg>