<svg xmlns="http://www.w3.org/2000/svg" width="763" height="407" viewBox="0 0 763 407" fill="none">
<g clip-path="url(#clip0_2532_70583)">
<path opacity="0.15" d="M725.135 115.588C714.249 118.254 703.445 121.062 692.743 124.033C682.203 126.597 671.766 129.324 661.45 132.194C650.727 134.778 640.126 137.546 629.648 140.476C619.129 143.02 608.732 145.706 598.457 148.575C594.977 149.41 591.498 150.264 588.059 151.139C581.08 152.91 574.183 154.741 567.326 156.675C560.815 158.221 554.365 159.849 547.976 161.538C544.131 162.556 540.326 163.594 536.542 164.672C528.159 166.667 519.857 168.783 511.678 171.001C509.725 171.53 507.771 172.08 505.818 172.629C496.398 174.847 487.12 177.228 477.984 179.772C477.089 180.016 476.173 180.281 475.278 180.545C465.41 182.865 455.684 185.368 446.141 188.054C445.694 188.176 445.266 188.319 444.819 188.441C434.91 190.761 425.164 193.264 415.601 195.971C415.235 196.072 414.869 196.194 414.502 196.296C404.817 198.555 395.315 200.997 385.997 203.622C385.427 203.785 384.878 203.948 384.328 204.111C375.07 206.268 365.976 208.588 357.064 211.091C356.128 211.355 355.212 211.62 354.276 211.905C345.547 213.919 337.002 216.076 328.619 218.437C327.174 218.844 325.75 219.251 324.326 219.658C316.248 221.51 308.313 223.524 300.52 225.661C298.384 226.251 296.268 226.841 294.152 227.472C286.868 229.141 279.706 230.932 272.666 232.845C168.531 261.152 92.4756 316.972 56.9707 407.59H57.7032C93.1674 317.379 169.02 261.782 272.788 233.516C275.799 232.702 278.851 231.909 281.923 231.135C183.914 262.23 112.029 318.925 77.297 407.59H78.0905C114.206 315.69 190.404 258.262 294.294 228.164C297.224 227.493 300.174 226.841 303.145 226.211C205.013 259.076 132.66 317.44 97.135 407.611H97.9082C134.146 315.934 208.614 257.265 309.575 224.888C313.176 224.176 316.777 223.463 320.419 222.812C224.037 257.631 152.559 317.257 116.505 407.611H117.278C153.8 316.341 226.642 256.532 324.814 222.039C328.761 221.347 332.729 220.696 336.717 220.065C242.37 256.797 171.868 317.44 135.224 407.611H136.017C173.028 316.809 244.506 256.023 340.176 219.536C344.327 218.905 348.498 218.315 352.709 217.765C260.336 256.288 190.77 317.847 153.394 407.611H154.187C191.849 317.379 262.167 255.738 355.517 217.399C359.77 216.85 364.063 216.341 368.376 215.852C277.854 256.064 209.042 318.376 170.77 407.611H171.563C210.1 318.03 279.523 255.637 370.838 215.588C375.152 215.12 379.506 214.693 383.881 214.286C295.027 256.044 226.784 319.047 187.413 407.611H188.207C227.801 318.762 296.532 255.718 386.058 214.082C390.392 213.695 394.766 213.349 399.161 213.024C311.711 256.247 243.773 319.76 203.1 407.611H203.894C244.75 319.536 313.115 255.983 401.114 212.881C405.428 212.576 409.782 212.291 414.136 212.047C327.846 256.593 259.99 320.553 217.831 407.611H218.625C260.987 320.411 329.168 256.41 415.927 211.966C420.199 211.742 424.472 211.538 428.806 211.355C343.391 257.122 275.351 321.428 231.423 407.611H232.237C276.328 321.306 344.693 256.98 430.515 211.294C434.686 211.131 438.898 210.989 443.11 210.887C361.52 255.983 295.006 317.419 249.165 397.883C245.055 401.099 240.966 404.375 236.896 407.611H238.056C241.434 404.924 244.791 402.218 248.189 399.572C246.825 401.974 245.503 404.375 244.18 406.817C244.038 407.081 243.896 407.346 243.753 407.631H244.567C244.648 407.488 244.709 407.346 244.791 407.183C246.398 404.232 248.026 401.302 249.694 398.392C256.327 393.203 263.001 388.075 269.736 382.967C265.056 390.15 260.539 397.476 256.205 404.965C255.697 405.84 255.188 406.735 254.679 407.631H255.534C255.961 406.878 256.388 406.105 256.836 405.352C261.536 397.252 266.419 389.377 271.506 381.644C278.2 376.577 284.935 371.571 291.71 366.605C285.667 374.745 279.828 383.068 274.192 391.615C268.067 396.906 261.984 402.238 255.941 407.651H257.121C262.309 403.011 267.518 398.392 272.767 393.834C270.529 397.252 268.312 400.692 266.155 404.192C265.443 405.331 264.771 406.512 264.079 407.672H264.914C265.524 406.654 266.134 405.616 266.745 404.619C269.349 400.407 272.015 396.276 274.741 392.165C280.967 386.792 287.234 381.501 293.562 376.251C287.844 383.842 282.29 391.615 276.918 399.532C274.171 402.218 271.486 404.965 268.759 407.672H269.776C271.506 405.962 273.174 404.212 274.924 402.523C273.785 404.232 272.686 405.962 271.567 407.672H272.422C274.09 405.107 275.758 402.543 277.488 400.02L278.688 398.86C283.917 393.773 289.208 388.766 294.559 383.801C289.228 390.679 284.019 397.68 278.932 404.782C278.058 405.738 277.203 406.695 276.328 407.651H277.813C278.383 406.858 278.932 406.044 279.502 405.25C283.958 400.407 288.455 395.604 292.992 390.883C288.556 396.357 284.182 401.892 279.889 407.509C279.848 407.549 279.807 407.611 279.767 407.651H280.743C293.195 392.694 306.156 378.245 319.585 364.306C334.214 350.244 349.291 336.65 364.775 323.545C380.361 311.253 396.272 299.349 412.508 287.83C429.437 276.557 446.589 265.629 464.006 255.047C489.785 240.334 515.91 226.231 542.32 212.719C604.764 216.341 671.053 224.461 740.008 236.406C747.455 237.688 754.943 239.051 762.451 240.415V239.662C754.983 238.298 747.537 236.955 740.13 235.673C671.623 223.809 605.741 215.71 543.643 212.047C549.523 209.056 555.403 206.084 561.303 203.134C624.805 205.861 692.275 213.288 762.451 224.705V223.972C692.784 212.658 625.782 205.23 562.667 202.462C568.567 199.532 574.468 196.642 580.389 193.773C638.133 195.36 699.152 200.895 762.451 209.788V209.035C699.661 200.224 639.15 194.729 581.833 193.081C587.713 190.232 593.634 187.424 599.535 184.636C651.46 185.266 705.989 189.092 762.451 195.706V194.953C706.558 188.4 652.538 184.595 601.081 183.923C606.982 181.156 612.882 178.408 618.803 175.702C664.827 175.519 712.866 177.879 762.451 182.478V181.746C713.456 177.208 665.967 174.847 620.431 174.969C626.331 172.283 632.212 169.617 638.133 166.972C678.154 166.178 719.702 167.297 762.451 170.167V169.434C720.333 166.626 679.375 165.486 639.882 166.198C645.762 163.594 651.643 161.009 657.543 158.445C691.502 157.224 726.559 157.387 762.471 158.832V158.079C727.231 156.675 692.804 156.491 659.415 157.631C665.255 155.108 671.135 152.605 676.995 150.142C704.809 148.677 733.355 148.168 762.471 148.514V147.761C734.067 147.436 706.212 147.904 679.029 149.288C684.848 146.846 690.688 144.444 696.527 142.043C718.115 140.557 740.13 139.662 762.471 139.255V138.522C740.863 138.909 719.58 139.764 698.705 141.168C704.483 138.807 710.282 136.487 716.081 134.188C731.341 132.886 746.824 131.888 762.471 131.115V130.362C747.638 131.074 732.948 132.031 718.441 133.252C724.158 130.993 729.876 128.754 735.634 126.557C744.505 125.661 753.478 124.868 762.471 124.135V123.362C754.353 124.013 746.275 124.725 738.258 125.539C743.894 123.382 749.551 121.245 755.207 119.129C757.608 118.844 760.05 118.579 762.471 118.315V117.562C761.026 117.725 759.582 117.867 758.137 118.05C759.582 117.521 761.026 116.992 762.471 116.463V115.669C759.989 116.585 757.506 117.481 755.024 118.417C752.216 118.742 749.429 119.088 746.662 119.434C751.911 117.481 757.201 115.588 762.471 113.695V112.922C762.471 112.922 762.41 112.922 762.39 112.942C759.378 113.37 756.387 113.818 753.417 114.286C756.428 113.227 759.46 112.21 762.471 111.172V110.378C758.137 111.864 753.824 113.349 749.531 114.876C746.438 115.364 743.345 115.853 740.273 116.361C744.769 114.815 749.286 113.309 753.803 111.803C756.693 111.274 759.582 110.745 762.491 110.216V109.483C761.372 109.686 760.233 109.87 759.114 110.073C760.233 109.707 761.372 109.361 762.512 108.995V108.201C759.561 109.157 756.591 110.114 753.641 111.091C753.213 111.172 752.786 111.253 752.379 111.315C750.1 111.742 747.821 112.19 745.543 112.617C749.225 111.457 752.908 110.317 756.611 109.198C758.585 108.771 760.558 108.364 762.512 107.936V105.82C760.986 106.227 759.46 106.634 757.934 107.041C746.946 109.748 736.061 112.597 725.257 115.568L725.135 115.588ZM720.414 117.684H720.475C722.063 117.216 723.65 116.789 725.257 116.341C725.847 116.199 726.437 116.036 727.027 115.893C727.475 115.791 727.902 115.69 728.35 115.568C726.864 116.015 725.359 116.463 723.873 116.931C722.734 117.175 721.595 117.42 720.475 117.664C720.455 117.664 720.435 117.664 720.414 117.664V117.684ZM384.776 206.369C388.581 205.677 392.426 205.026 396.292 204.375C392.528 205.8 388.804 207.244 385.101 208.73C381.195 209.259 377.309 209.809 373.463 210.378C377.207 208.995 380.971 207.672 384.776 206.349V206.369ZM369.862 210.948C366.301 211.498 362.781 212.067 359.261 212.678C362.659 211.518 366.077 210.399 369.536 209.32C372.975 208.608 376.434 207.936 379.933 207.285C376.556 208.486 373.178 209.707 369.862 210.968V210.948ZM460.12 191.616C464.209 191.107 468.319 190.639 472.45 190.191C468.177 192.063 463.924 193.976 459.713 195.93C455.582 196.276 451.452 196.642 447.362 197.049C451.574 195.197 455.826 193.386 460.12 191.636V191.616ZM445.022 197.273C440.912 197.68 436.823 198.128 432.753 198.596C436.843 196.886 440.994 195.238 445.165 193.61C449.214 193.04 453.283 192.491 457.373 191.982C453.222 193.712 449.112 195.482 445.022 197.293V197.273ZM611.417 154.64L611.56 154.599L636.179 147.741C631.418 149.634 626.677 151.567 621.957 153.52C618.457 153.866 614.958 154.233 611.478 154.64C611.458 154.64 611.438 154.64 611.417 154.66C611.438 154.66 611.458 154.66 611.478 154.64C611.478 154.64 611.438 154.64 611.417 154.64ZM649.506 146.174C644.562 148.189 639.638 150.224 634.714 152.299C631.316 152.605 627.919 152.93 624.541 153.256C629.363 151.262 634.206 149.308 639.068 147.375C642.527 146.947 646.007 146.54 649.506 146.174ZM641.775 146.296C646.515 144.444 651.276 142.613 656.058 140.822C659.497 140.334 662.955 139.866 666.414 139.418C661.572 141.29 656.77 143.203 651.989 145.157C648.57 145.523 645.172 145.91 641.775 146.296ZM586.533 169.027C581.589 171.306 576.645 173.606 571.762 175.966C568.282 176.109 564.823 176.272 561.385 176.455C566.187 174.196 571.009 171.958 575.872 169.76C579.412 169.495 582.973 169.251 586.533 169.007V169.027ZM577.886 168.864C582.647 166.728 587.449 164.611 592.271 162.556C595.832 162.21 599.413 161.905 603.014 161.599C598.111 163.756 593.248 165.934 588.385 168.172C584.865 168.396 581.365 168.62 577.886 168.885V168.864ZM559.411 176.577C555.749 176.78 552.107 177.004 548.465 177.228C553.144 175.071 557.865 172.934 562.606 170.838C566.288 170.513 569.992 170.207 573.715 169.923C568.913 172.1 564.152 174.318 559.411 176.557V176.577ZM557.641 177.432C552.819 179.731 548.037 182.071 543.276 184.452C539.634 184.575 536.013 184.737 532.411 184.9C537.111 182.601 541.832 180.342 546.593 178.124C550.255 177.879 553.938 177.656 557.641 177.452V177.432ZM530.56 184.982C526.755 185.165 522.97 185.368 519.206 185.572C523.784 183.374 528.383 181.217 533.042 179.121C536.867 178.815 540.692 178.531 544.538 178.266C539.838 180.464 535.178 182.702 530.56 184.982ZM528.871 185.816C524.171 188.156 519.491 190.517 514.852 192.938C511.068 193.04 507.303 193.162 503.56 193.305C508.138 190.985 512.756 188.685 517.416 186.447C521.221 186.223 525.025 185.999 528.871 185.816ZM515.035 193.671C518.616 193.569 522.218 193.488 525.839 193.427C521.017 195.971 516.236 198.555 511.495 201.2C507.955 201.2 504.414 201.2 500.894 201.2C505.574 198.636 510.274 196.133 515.035 193.651V193.671ZM516.52 192.898C521.221 190.456 525.941 188.075 530.722 185.734C534.344 185.551 538.007 185.409 541.669 185.266C536.847 187.688 532.045 190.15 527.284 192.653C523.683 192.714 520.102 192.796 516.52 192.877V192.898ZM543.439 185.205C546.857 185.083 550.276 184.982 553.694 184.9C548.75 187.403 543.846 189.967 538.943 192.552C535.585 192.552 532.228 192.592 528.912 192.653C533.713 190.13 538.556 187.647 543.439 185.226V185.205ZM545.026 184.412C549.848 182.01 554.691 179.65 559.574 177.35C563.053 177.167 566.553 176.984 570.053 176.821C565.088 179.222 560.164 181.644 555.281 184.106C551.863 184.188 548.444 184.29 545.047 184.412H545.026ZM571.904 176.74C575.16 176.597 578.415 176.475 581.671 176.353C576.584 178.836 571.518 181.339 566.472 183.883C563.297 183.923 560.164 183.984 557.01 184.066C561.955 181.583 566.899 179.141 571.904 176.74ZM573.634 175.905C578.578 173.545 583.563 171.205 588.568 168.925C591.885 168.722 595.201 168.518 598.538 168.356C593.451 170.716 588.385 173.117 583.339 175.559C580.104 175.661 576.869 175.783 573.654 175.926L573.634 175.905ZM590.42 168.05C595.364 165.791 600.308 163.594 605.313 161.416C608.691 161.131 612.068 160.887 615.466 160.643C610.42 162.881 605.374 165.181 600.369 167.481C597.053 167.643 593.736 167.847 590.42 168.05ZM607.389 160.521C612.272 158.404 617.155 156.308 622.079 154.253C625.518 153.907 628.956 153.581 632.395 153.256C627.389 155.393 622.384 157.55 617.42 159.748C614.062 159.992 610.705 160.236 607.368 160.5L607.389 160.521ZM619.556 154.518C614.713 156.532 609.912 158.608 605.13 160.704C601.57 160.989 598.05 161.314 594.53 161.64C599.25 159.625 604.011 157.651 608.793 155.698C612.374 155.291 615.955 154.884 619.556 154.518ZM592.088 161.844C588.426 162.19 584.784 162.556 581.141 162.942C585.719 161.05 590.318 159.198 594.937 157.367C598.599 156.899 602.302 156.43 606.005 156.003C601.346 157.916 596.686 159.87 592.068 161.844H592.088ZM589.85 162.8C585.089 164.855 580.368 166.931 575.668 169.047C572.006 169.332 568.343 169.617 564.701 169.923C569.34 167.888 574.02 165.893 578.72 163.94C582.423 163.533 586.126 163.166 589.87 162.8H589.85ZM562.402 170.126C558.618 170.452 554.854 170.818 551.11 171.184C555.606 169.271 560.164 167.399 564.722 165.547C568.506 165.079 572.291 164.632 576.096 164.225C571.497 166.158 566.94 168.132 562.382 170.126H562.402ZM560.286 171.082C555.627 173.158 550.988 175.254 546.389 177.391C542.585 177.655 538.8 177.92 535.036 178.225C539.594 176.17 544.192 174.155 548.811 172.161C552.615 171.774 556.441 171.408 560.286 171.062V171.082ZM532.839 178.408C528.932 178.734 525.066 179.06 521.2 179.426C525.656 177.493 530.132 175.58 534.649 173.728C538.536 173.28 542.422 172.853 546.349 172.446C541.811 174.4 537.315 176.394 532.839 178.408ZM530.865 179.324C526.287 181.42 521.729 183.557 517.212 185.734C513.285 185.979 509.379 186.223 505.493 186.508C509.989 184.432 514.506 182.397 519.064 180.382C522.991 180.016 526.918 179.65 530.865 179.324ZM503.417 186.65C499.409 186.935 495.441 187.261 491.474 187.607C495.848 185.653 500.243 183.74 504.679 181.868C508.667 181.42 512.675 180.993 516.704 180.606C512.248 182.58 507.812 184.595 503.417 186.65ZM501.545 187.525C497.049 189.642 492.593 191.799 488.157 194.017C484.108 194.241 480.08 194.465 476.071 194.729C480.466 192.633 484.902 190.557 489.378 188.543C493.407 188.176 497.476 187.851 501.545 187.525ZM490.029 193.915C494.526 191.697 499.063 189.52 503.621 187.383C507.548 187.098 511.495 186.813 515.462 186.569C510.864 188.787 506.306 191.066 501.769 193.386C497.842 193.549 493.915 193.712 490.029 193.915ZM501.952 194.119C505.737 193.976 509.521 193.834 513.346 193.732C508.646 196.194 503.967 198.697 499.328 201.241C495.584 201.262 491.84 201.323 488.117 201.384C492.695 198.921 497.293 196.5 501.952 194.119ZM499.511 201.974C503.051 201.953 506.591 201.933 510.152 201.953C505.371 204.619 500.609 207.326 495.869 210.093C492.389 210.012 488.93 209.951 485.471 209.91C490.111 207.224 494.79 204.579 499.511 201.994V201.974ZM511.658 201.953C514.933 201.953 518.209 201.994 521.505 202.035C516.582 204.782 511.678 207.55 506.815 210.378C503.621 210.277 500.447 210.195 497.293 210.134C502.054 207.367 506.835 204.66 511.678 201.974L511.658 201.953ZM513.001 201.221C517.782 198.575 522.604 195.991 527.447 193.427C530.783 193.366 534.141 193.345 537.518 193.305C532.574 195.93 527.67 198.596 522.787 201.302C519.511 201.261 516.256 201.221 513.001 201.221ZM524.273 201.323C529.196 198.596 534.141 195.93 539.126 193.284C542.178 193.284 545.23 193.264 548.302 193.284C543.215 195.971 538.169 198.718 533.144 201.485C530.173 201.424 527.223 201.363 524.252 201.323H524.273ZM540.53 192.552C545.453 189.947 550.418 187.383 555.423 184.859C558.577 184.778 561.751 184.717 564.925 184.656C559.818 187.24 554.732 189.866 549.686 192.531C546.613 192.531 543.582 192.531 540.53 192.531V192.552ZM566.614 184.636C569.422 184.595 572.25 184.575 575.078 184.534C569.829 187.179 564.6 189.886 559.411 192.592C556.685 192.552 553.979 192.531 551.252 192.531C556.339 189.845 561.466 187.22 566.614 184.615V184.636ZM568.14 183.883C573.227 181.319 578.334 178.795 583.461 176.292C586.411 176.19 589.362 176.109 592.332 176.028C587.062 178.571 581.813 181.156 576.604 183.781C573.776 183.781 570.948 183.822 568.14 183.862V183.883ZM585.109 175.498C590.216 173.036 595.343 170.635 600.512 168.254C603.543 168.091 606.616 167.949 609.668 167.826C604.418 170.268 599.189 172.751 593.98 175.254C591.01 175.336 588.059 175.397 585.109 175.498ZM602.322 167.419C607.389 165.079 612.475 162.78 617.603 160.521C620.736 160.297 623.89 160.093 627.044 159.89C621.814 162.23 616.606 164.611 611.438 167.012C608.386 167.135 605.354 167.277 602.343 167.44L602.322 167.419ZM619.597 159.625C624.643 157.407 629.75 155.23 634.836 153.073C638.051 152.788 641.266 152.523 644.501 152.259C639.313 154.497 634.124 156.736 628.956 159.035C625.823 159.218 622.689 159.422 619.597 159.625ZM637.095 152.137C642.1 150.041 647.105 147.965 652.131 145.93C655.407 145.584 658.703 145.238 662.019 144.912C656.892 147.029 651.765 149.166 646.678 151.343C643.484 151.608 640.289 151.852 637.095 152.137ZM654.613 144.912C659.558 142.918 664.522 140.985 669.487 139.072C672.803 138.645 676.14 138.258 679.477 137.851C674.431 139.845 669.405 141.86 664.4 143.915C661.124 144.241 657.848 144.566 654.593 144.912H654.613ZM672.396 137.973C677.198 136.142 682.041 134.31 686.883 132.519C690.2 132.031 693.536 131.563 696.873 131.115C691.949 132.987 687.026 134.88 682.142 136.793C678.887 137.159 675.631 137.566 672.396 137.953V137.973ZM686.72 131.807C683.404 132.295 680.108 132.784 676.812 133.293C681.206 131.726 685.622 130.199 690.057 128.693C693.414 128.103 696.772 127.513 700.149 126.943C695.652 128.531 691.197 130.159 686.72 131.807ZM683.363 133.048C678.663 134.798 673.983 136.569 669.304 138.36C665.906 138.787 662.528 139.235 659.171 139.703C663.769 137.993 668.388 136.304 673.007 134.636C676.445 134.086 679.904 133.557 683.363 133.048ZM655.834 140.171C652.416 140.639 648.998 141.127 645.579 141.656C649.934 140.089 654.328 138.543 658.723 137.017C662.142 136.426 665.601 135.857 669.039 135.287C664.604 136.894 660.209 138.522 655.814 140.171H655.834ZM652.68 141.351C648.041 143.101 643.423 144.892 638.845 146.724C635.345 147.151 631.845 147.578 628.366 148.046C632.903 146.317 637.441 144.607 642.019 142.938C645.559 142.389 649.099 141.86 652.66 141.351H652.68ZM625.212 148.453C621.672 148.921 618.132 149.43 614.612 149.939C618.925 148.352 623.259 146.785 627.634 145.258C631.174 144.668 634.735 144.078 638.295 143.529C633.921 145.136 629.567 146.785 625.212 148.453ZM622.201 149.634C617.643 151.404 613.126 153.195 608.609 155.026C604.988 155.433 601.386 155.861 597.805 156.308C602.282 154.558 606.778 152.849 611.295 151.18C614.917 150.651 618.539 150.122 622.181 149.634H622.201ZM594.774 156.715C591.132 157.183 587.51 157.672 583.909 158.181C588.202 156.573 592.536 154.986 596.869 153.439C600.471 152.849 604.072 152.279 607.714 151.73C603.38 153.358 599.067 155.026 594.774 156.715ZM591.966 157.814C587.469 159.605 582.993 161.416 578.537 163.288C574.793 163.695 571.09 164.102 567.387 164.55C571.823 162.78 576.279 161.05 580.755 159.361C584.478 158.832 588.202 158.323 591.946 157.835L591.966 157.814ZM564.559 164.896C560.815 165.364 557.092 165.832 553.389 166.341C557.641 164.713 561.914 163.126 566.207 161.579C569.91 160.989 573.654 160.419 577.398 159.87C573.105 161.518 568.832 163.207 564.579 164.916L564.559 164.896ZM561.914 165.975C557.478 167.786 553.043 169.617 548.648 171.51C544.802 171.896 540.977 172.324 537.152 172.751C541.527 170.96 545.921 169.231 550.357 167.501C554.182 166.972 558.028 166.463 561.894 165.975H561.914ZM534.487 173.056C530.641 173.504 526.836 173.972 523.052 174.481C527.243 172.853 531.475 171.245 535.728 169.678C539.533 169.088 543.358 168.518 547.224 167.969C542.951 169.638 538.719 171.347 534.507 173.077L534.487 173.056ZM531.943 174.115C527.548 175.946 523.215 177.798 518.881 179.691C514.933 180.077 511.027 180.464 507.12 180.891C511.434 179.08 515.788 177.31 520.142 175.58C524.049 175.071 527.976 174.562 531.943 174.094V174.115ZM504.516 181.196C500.589 181.644 496.682 182.112 492.776 182.58C496.947 180.912 501.138 179.304 505.371 177.717C509.236 177.126 513.143 176.577 517.07 176.028C512.858 177.717 508.667 179.426 504.516 181.196ZM502.095 182.214C497.761 184.066 493.447 185.938 489.175 187.871C485.146 188.238 481.138 188.624 477.15 189.031C481.422 187.2 485.716 185.429 490.049 183.659C494.037 183.15 498.046 182.662 502.074 182.214H502.095ZM474.667 189.296C470.639 189.723 466.651 190.171 462.683 190.659C466.814 188.97 470.985 187.342 475.196 185.734C479.144 185.165 483.111 184.615 487.12 184.086C482.948 185.796 478.798 187.546 474.688 189.316L474.667 189.296ZM461.829 195.848C466.142 193.874 470.476 191.941 474.871 190.028C478.961 189.601 483.05 189.194 487.181 188.807C482.786 190.802 478.411 192.857 474.098 194.933C469.988 195.218 465.898 195.523 461.829 195.848ZM474.26 195.686C478.309 195.401 482.379 195.157 486.489 194.933C481.972 197.192 477.516 199.491 473.08 201.831C469.011 201.974 464.962 202.116 460.933 202.299C465.328 200.041 469.784 197.843 474.26 195.686ZM474.749 201.791C479.225 199.43 483.762 197.11 488.32 194.851C492.247 194.648 496.194 194.444 500.162 194.281C495.563 196.642 491.006 199.043 486.489 201.506C482.562 201.587 478.655 201.669 474.749 201.791ZM486.672 202.238C490.416 202.157 494.159 202.116 497.944 202.076C493.264 204.66 488.625 207.285 484.007 209.971C480.283 209.931 476.6 209.91 472.918 209.89C477.455 207.285 482.053 204.741 486.672 202.238ZM484.19 210.724C487.649 210.765 491.128 210.826 494.607 210.907C443.557 240.781 396.74 275.722 355.151 316.097C349.719 321.367 344.367 326.74 339.118 332.214C332.139 336.996 325.201 341.819 318.283 346.683C329.901 333.211 342.068 320.289 354.805 307.936C393.281 270.574 436.721 238.299 484.21 210.724H484.19ZM339.586 332.784C346.239 328.246 352.913 323.748 359.627 319.312C356.555 322.202 353.483 325.112 350.451 328.062C346.931 331.461 343.472 334.92 340.034 338.4C333.482 343.366 326.991 348.412 320.541 353.48C326.747 346.438 333.095 339.56 339.586 332.804V332.784ZM342.089 330.199C346.544 325.6 351.061 321.082 355.66 316.626C397.493 276.007 444.636 240.924 496.031 210.928C499.205 211.009 502.38 211.091 505.594 211.172C453.873 241.371 405.997 276.312 362.842 316.3C355.884 320.879 348.966 325.498 342.089 330.179V330.199ZM506.978 211.213C509.806 211.294 512.655 211.396 515.523 211.518C470.008 237.83 427.036 267.46 387.156 300.57C380.259 304.965 373.402 309.401 366.566 313.878C409.11 274.888 456.213 240.781 506.978 211.213ZM508.199 210.5C513.082 207.672 518.006 204.884 522.97 202.137C525.921 202.177 528.871 202.218 531.842 202.279C526.775 205.087 521.729 207.916 516.724 210.806C513.875 210.704 511.027 210.602 508.199 210.5ZM533.327 202.299C535.891 202.36 538.475 202.421 541.079 202.483C535.85 205.332 530.621 208.221 525.453 211.152C522.991 211.05 520.549 210.928 518.108 210.846C523.153 207.957 528.22 205.108 533.327 202.299ZM534.629 201.587C539.675 198.82 544.762 196.052 549.869 193.366C552.575 193.366 555.301 193.386 558.028 193.427C552.778 196.174 547.549 198.962 542.361 201.791C539.777 201.73 537.193 201.648 534.609 201.587H534.629ZM543.846 201.811C549.075 198.982 554.304 196.174 559.594 193.406C561.894 193.427 564.193 193.467 566.492 193.508C561.059 196.316 555.647 199.145 550.276 202.014C548.139 201.953 546.003 201.872 543.866 201.811H543.846ZM560.958 192.694C566.187 189.947 571.456 187.261 576.767 184.595C579.209 184.595 581.65 184.595 584.112 184.575C578.68 187.281 573.267 190.028 567.875 192.796C565.576 192.755 563.257 192.715 560.978 192.694H560.958ZM578.293 183.842C583.542 181.217 588.833 178.612 594.143 176.048C596.727 175.987 599.291 175.926 601.875 175.885C596.422 178.49 590.989 181.135 585.597 183.822C583.156 183.822 580.714 183.822 578.293 183.822V183.842ZM595.771 175.254C601.02 172.731 606.29 170.228 611.58 167.786C614.307 167.664 617.033 167.562 619.759 167.481C614.327 170.004 608.894 172.548 603.502 175.112C600.918 175.152 598.334 175.214 595.75 175.254H595.771ZM613.33 166.951C618.579 164.53 623.829 162.149 629.119 159.788C631.967 159.625 634.836 159.463 637.705 159.3C632.293 161.721 626.901 164.163 621.509 166.646C618.783 166.748 616.056 166.829 613.33 166.951ZM631.072 158.934C636.301 156.614 641.551 154.355 646.8 152.096C649.75 151.872 652.721 151.648 655.692 151.424C650.3 153.744 644.949 156.085 639.597 158.465C636.749 158.608 633.9 158.771 631.072 158.934ZM648.977 151.18C654.145 148.982 659.354 146.805 664.563 144.668C667.594 144.383 670.646 144.098 673.698 143.834C668.368 146.032 663.057 148.29 657.747 150.549C654.817 150.753 651.887 150.956 648.977 151.18ZM666.923 143.712C672.03 141.636 677.157 139.581 682.305 137.546C685.418 137.179 688.552 136.833 691.705 136.508C686.435 138.604 681.186 140.741 675.957 142.898C672.946 143.162 669.934 143.427 666.923 143.712ZM685.011 136.508C690.037 134.534 695.103 132.601 700.169 130.708C703.344 130.281 706.538 129.874 709.732 129.487C704.564 131.461 699.417 133.476 694.289 135.511C691.197 135.836 688.104 136.162 685.032 136.508H685.011ZM700.007 129.975C696.731 130.403 693.475 130.851 690.22 131.319C694.879 129.609 699.539 127.94 704.239 126.292C707.576 125.743 710.913 125.214 714.27 124.705C709.509 126.435 704.748 128.205 700.007 129.975ZM704.056 125.58C700.922 126.089 697.789 126.618 694.656 127.167C698.786 125.783 702.916 124.42 707.067 123.077C710.221 122.466 713.375 121.856 716.549 121.266C712.378 122.69 708.206 124.115 704.056 125.58ZM689.854 128.001C686.863 128.531 683.892 129.08 680.922 129.63C684.604 128.449 688.307 127.289 692.01 126.129C694.961 125.498 697.911 124.908 700.882 124.298C697.199 125.519 693.516 126.74 689.854 127.981V128.001ZM685.255 129.589C681.105 131.013 676.954 132.479 672.844 133.944C669.568 134.473 666.292 135.002 663.037 135.551C667.147 134.147 671.277 132.784 675.428 131.42C678.704 130.789 681.98 130.179 685.255 129.589ZM658.561 136.304C655.488 136.833 652.416 137.383 649.364 137.932C649.364 137.932 649.364 137.932 649.344 137.932C649.344 137.932 649.364 137.932 649.384 137.932C653.026 136.752 656.709 135.572 660.392 134.412C663.464 133.781 666.536 133.15 669.629 132.54C665.926 133.761 662.243 135.022 658.581 136.284L658.561 136.304ZM654.125 137.831C650.015 139.275 645.905 140.741 641.836 142.226C638.458 142.735 635.121 143.264 631.764 143.813C631.764 143.813 631.764 143.813 631.744 143.813C631.744 143.813 631.744 143.813 631.764 143.813C635.833 142.409 639.923 141.025 644.013 139.662C647.37 139.031 650.747 138.421 654.125 137.81V137.831ZM627.43 144.546C624.256 145.075 621.102 145.625 617.928 146.194C621.611 144.994 625.294 143.793 628.997 142.613C632.171 141.962 635.345 141.331 638.539 140.72C634.816 141.982 631.113 143.244 627.43 144.546ZM623.34 145.991C619.251 147.456 615.161 148.942 611.112 150.448C607.633 150.956 604.194 151.506 600.735 152.055C600.735 152.055 600.735 152.055 600.715 152.055C600.715 152.055 600.715 152.055 600.735 152.055C604.784 150.631 608.854 149.227 612.964 147.863C616.423 147.232 619.882 146.601 623.361 146.011L623.34 145.991ZM596.686 152.706C593.37 153.256 590.074 153.805 586.798 154.395C590.521 153.154 594.265 151.933 598.029 150.732C601.285 150.081 604.54 149.43 607.836 148.82C604.113 150.102 600.41 151.384 596.707 152.706H596.686ZM592.698 154.131C588.629 155.596 584.6 157.102 580.592 158.628C576.991 159.137 573.43 159.686 569.869 160.236C573.918 158.791 578.008 157.367 582.098 155.983C585.618 155.352 589.138 154.741 592.698 154.131ZM566.004 160.846C562.606 161.396 559.208 161.966 555.83 162.535C559.574 161.274 563.338 160.032 567.123 158.811C570.439 158.16 573.776 157.509 577.113 156.899C573.389 158.201 569.686 159.503 566.004 160.846ZM562.28 162.19C558.231 163.695 554.182 165.222 550.174 166.768C546.511 167.277 542.849 167.806 539.227 168.356C543.256 166.89 547.305 165.466 551.374 164.062C554.996 163.411 558.638 162.8 562.3 162.19H562.28ZM535.524 168.925C532.045 169.475 528.586 170.024 525.147 170.594C528.83 169.332 532.554 168.091 536.277 166.87C539.736 166.198 543.195 165.527 546.674 164.896C542.93 166.198 539.227 167.562 535.524 168.925ZM531.984 170.228C527.955 171.734 523.947 173.28 519.959 174.868C516.195 175.376 512.431 175.905 508.707 176.435C512.716 174.949 516.744 173.504 520.793 172.08C524.496 171.428 528.24 170.818 531.964 170.207L531.984 170.228ZM505.208 176.964C501.627 177.493 498.066 178.063 494.526 178.653C498.249 177.35 501.993 176.089 505.757 174.847C509.277 174.176 512.797 173.524 516.358 172.894C512.614 174.216 508.911 175.6 505.208 176.984V176.964ZM501.851 178.246C497.842 179.772 493.854 181.339 489.907 182.947C486.041 183.435 482.196 183.964 478.37 184.513C482.358 183.008 486.367 181.563 490.416 180.118C494.2 179.467 498.025 178.856 501.851 178.266V178.246ZM475.034 184.982C471.371 185.511 467.729 186.08 464.087 186.65C464.087 186.65 464.087 186.65 464.067 186.65C464.067 186.65 464.067 186.65 464.087 186.65C467.811 185.327 471.575 184.066 475.339 182.804C478.92 182.112 482.521 181.461 486.163 180.83C482.419 182.173 478.716 183.577 475.034 184.982ZM471.799 186.223C467.811 187.769 463.843 189.357 459.896 190.985C455.969 191.473 452.042 191.982 448.156 192.531C452.123 191.005 456.111 189.54 460.14 188.095C464.006 187.444 467.892 186.833 471.799 186.243V186.223ZM444.921 192.959C441.156 193.488 437.433 194.058 433.71 194.648C437.433 193.305 441.197 192.023 444.982 190.741C448.664 190.049 452.388 189.377 456.111 188.746C452.347 190.13 448.624 191.534 444.9 192.979L444.921 192.959ZM441.889 194.159C437.901 195.726 433.974 197.334 430.047 198.982C426.019 199.45 422.031 199.959 418.063 200.488C422.01 198.962 425.978 197.456 429.986 195.991C433.913 195.36 437.881 194.75 441.869 194.159H441.889ZM414.93 200.916C411.104 201.445 407.3 201.994 403.535 202.564C407.259 201.221 411.003 199.898 414.807 198.616C418.551 197.924 422.336 197.253 426.141 196.622C422.376 198.026 418.633 199.45 414.93 200.916ZM399.771 203.154C396.312 203.704 392.853 204.273 389.435 204.863C392.813 203.724 396.231 202.625 399.67 201.546C403.027 200.855 406.404 200.183 409.802 199.532C406.445 200.712 403.108 201.913 399.792 203.134L399.771 203.154ZM388.072 208.425C391.999 206.878 395.967 205.352 399.954 203.866C403.963 203.235 407.991 202.625 412.061 202.055C408.093 203.642 404.166 205.27 400.28 206.96C396.17 207.428 392.101 207.916 388.052 208.445L388.072 208.425ZM402.823 206.675C406.872 204.945 410.982 203.276 415.113 201.628C419.223 201.058 423.373 200.529 427.545 200.02C423.435 201.77 419.365 203.561 415.316 205.393C411.125 205.779 406.954 206.207 402.803 206.675H402.823ZM430.251 199.695C434.422 199.206 438.593 198.738 442.825 198.311C438.593 200.203 434.401 202.137 430.251 204.131C426.019 204.456 421.807 204.823 417.636 205.189C421.807 203.317 426.019 201.485 430.271 199.695H430.251ZM445.165 198.067C449.336 197.639 453.527 197.253 457.739 196.886C453.405 198.921 449.112 200.977 444.86 203.093C440.648 203.358 436.456 203.642 432.285 203.948C436.538 201.933 440.831 199.979 445.165 198.067ZM446.772 202.991C451.106 200.855 455.46 198.779 459.875 196.723C464.006 196.377 468.156 196.052 472.328 195.767C467.912 197.924 463.517 200.102 459.184 202.34C455.013 202.544 450.882 202.747 446.772 202.991ZM459.387 203.073C463.436 202.89 467.526 202.727 471.615 202.584C467.119 204.986 462.663 207.428 458.248 209.91C454.178 209.951 450.129 210.032 446.101 210.114C450.496 207.712 454.911 205.372 459.387 203.073ZM473.304 202.523C477.231 202.401 481.158 202.299 485.105 202.218C480.527 204.721 475.99 207.265 471.473 209.849C467.566 209.849 463.66 209.849 459.774 209.91C464.25 207.407 468.747 204.965 473.284 202.544L473.304 202.523ZM471.676 210.602C475.359 210.602 479.083 210.623 482.806 210.663C435.704 238.136 392.589 270.228 354.378 307.346C340.929 320.411 328.09 334.086 315.882 348.392C308.964 353.276 302.087 358.201 295.251 363.186C342.618 300.773 402.437 250.366 471.697 210.602H471.676ZM316.33 348.941C323.064 344.18 329.819 339.479 336.615 334.819C330.084 341.697 323.675 348.718 317.428 355.901C310.897 361.07 304.427 366.28 297.997 371.55C303.939 363.838 310.043 356.308 316.309 348.941H316.33ZM317.957 356.451C324.061 351.607 330.226 346.845 336.412 342.104C330.369 348.29 324.428 354.599 318.608 361.009C312.647 366.239 306.746 371.51 300.907 376.862C306.462 369.922 312.138 363.125 317.957 356.451ZM340.583 338.909C346.402 334.493 352.262 330.118 358.162 325.783C352.323 331.095 346.544 336.508 340.847 341.982C335.069 346.805 329.331 351.689 323.634 356.613C329.189 350.61 334.845 344.709 340.583 338.889V338.909ZM344.286 335.165C346.504 332.946 348.742 330.728 351 328.551C355.07 324.603 359.18 320.716 363.33 316.87C369.76 312.637 376.21 308.445 382.68 304.294C376.128 309.808 369.679 315.405 363.31 321.123C356.921 325.763 350.573 330.443 344.286 335.185V335.165ZM387.624 301.119C393.586 297.314 399.588 293.549 405.611 289.804C399.527 294.403 393.525 299.084 387.563 303.826C381.48 308.038 375.457 312.311 369.455 316.626C375.437 311.375 381.5 306.186 387.624 301.099V301.119ZM392.365 297.232C431.187 265.466 472.877 236.935 516.968 211.538C519.41 211.64 521.831 211.742 524.293 211.844C485.248 234.005 447.769 258.364 412.162 284.92C405.55 288.97 398.957 293.081 392.385 297.232H392.365ZM525.676 211.905C527.65 211.986 529.603 212.088 531.577 212.189C499.328 230.036 467.933 249.165 437.535 269.617C431.41 273.26 425.306 276.923 419.223 280.627C453.141 255.738 488.707 232.865 525.676 211.925V211.905ZM526.897 211.213C532.106 208.262 537.335 205.372 542.605 202.503C544.741 202.564 546.857 202.625 548.994 202.706C543.582 205.596 538.169 208.526 532.798 211.498C530.824 211.396 528.851 211.294 526.877 211.213H526.897ZM534.222 211.579C539.614 208.608 545.047 205.657 550.479 202.767C552.066 202.828 553.673 202.89 555.261 202.951C549.624 205.881 544.009 208.811 538.434 211.803C537.03 211.721 535.626 211.66 534.222 211.579ZM551.781 202.076C557.193 199.206 562.626 196.357 568.079 193.549C569.869 193.569 571.66 193.61 573.471 193.651C567.814 196.479 562.199 199.349 556.583 202.259C554.976 202.198 553.368 202.137 551.761 202.076H551.781ZM569.483 192.837C574.895 190.049 580.348 187.301 585.821 184.595C587.795 184.595 589.789 184.595 591.783 184.595C586.126 187.342 580.511 190.13 574.895 192.938C573.084 192.898 571.294 192.857 569.503 192.816L569.483 192.837ZM587.327 183.842C592.78 181.156 598.233 178.49 603.726 175.885C605.863 175.844 608.019 175.824 610.176 175.804C604.52 178.47 598.904 181.156 593.288 183.883C591.294 183.883 589.321 183.862 587.347 183.862L587.327 183.842ZM605.354 175.091C610.787 172.507 616.26 169.943 621.733 167.419C624.032 167.338 626.352 167.277 628.671 167.216C623.035 169.78 617.42 172.385 611.804 175.03C609.647 175.03 607.49 175.071 605.354 175.112V175.091ZM623.463 166.605C628.895 164.102 634.328 161.64 639.801 159.218C642.263 159.096 644.745 158.974 647.227 158.872C641.612 161.355 636.016 163.858 630.421 166.402C628.102 166.463 625.782 166.524 623.463 166.605ZM641.693 158.384C647.105 156.003 652.518 153.622 657.95 151.302C660.575 151.119 663.2 150.956 665.845 150.794C660.27 153.174 654.674 155.596 649.12 158.058C646.637 158.16 644.155 158.282 641.693 158.404V158.384ZM660.005 150.427C665.377 148.148 670.748 145.889 676.14 143.651C678.907 143.406 681.695 143.183 684.482 142.959C678.928 145.258 673.393 147.578 667.879 149.918C665.255 150.081 662.63 150.244 660.005 150.407V150.427ZM678.46 142.715C683.77 140.537 689.121 138.38 694.472 136.264C697.341 135.979 700.231 135.673 703.14 135.409C697.667 137.607 692.194 139.825 686.72 142.063C683.953 142.267 681.206 142.491 678.46 142.735V142.715ZM697.056 135.246C702.306 133.17 707.576 131.135 712.845 129.121C715.816 128.754 718.787 128.409 721.778 128.063C716.365 130.138 710.974 132.255 705.602 134.412C702.754 134.676 699.905 134.961 697.077 135.246H697.056ZM715.735 128.022C720.862 126.068 726.03 124.155 731.198 122.242C734.23 121.815 737.282 121.408 740.334 121.001C735.044 122.975 729.754 124.969 724.484 127.004C721.554 127.33 718.644 127.656 715.735 128.001V128.022ZM712.662 128.388C709.529 128.775 706.416 129.161 703.303 129.568C708.227 127.737 713.151 125.926 718.095 124.135C721.289 123.647 724.504 123.179 727.739 122.731C722.714 124.583 717.688 126.475 712.683 128.388H712.662ZM717.912 123.423C714.717 123.911 711.523 124.4 708.349 124.908C712.805 123.362 717.261 121.835 721.737 120.33C724.972 119.739 728.228 119.17 731.483 118.6C726.946 120.187 722.408 121.795 717.891 123.423H717.912ZM721.595 119.597C718.705 120.126 715.836 120.655 712.968 121.205C716.65 120.045 720.333 118.885 724.016 117.765C726.905 117.155 729.794 116.544 732.704 115.954C728.98 117.155 725.277 118.376 721.595 119.617V119.597ZM699.681 123.809C699.681 123.809 699.702 123.809 699.722 123.809C702.672 122.914 705.643 122.039 708.593 121.164C710.974 120.614 713.354 120.085 715.755 119.556C712.805 120.472 709.875 121.428 706.925 122.365C704.503 122.833 702.102 123.321 699.702 123.809C699.702 123.809 699.681 123.809 699.661 123.809H699.681ZM687.941 126.251C689.589 125.783 691.237 125.315 692.885 124.868C694.106 124.562 695.347 124.277 696.568 123.972C695.001 124.44 693.435 124.929 691.868 125.417C690.546 125.702 689.243 125.967 687.921 126.251H687.941ZM676.771 129.487C679.253 128.917 681.756 128.388 684.238 127.839C681.247 128.795 678.256 129.752 675.286 130.728C672.742 131.217 670.199 131.726 667.656 132.214C670.687 131.298 673.719 130.382 676.771 129.487ZM655.732 134.676C655.732 134.676 655.773 134.676 655.793 134.676C657.706 134.127 659.639 133.598 661.552 133.069C662.813 132.763 664.095 132.458 665.377 132.153C663.668 132.682 661.938 133.211 660.229 133.74C658.744 134.045 657.279 134.351 655.793 134.676C655.793 134.676 655.753 134.676 655.732 134.676ZM645.233 137.729C647.818 137.159 650.402 136.589 652.986 136.019C649.954 136.996 646.922 137.993 643.891 138.99C641.246 139.479 638.621 139.988 635.976 140.517C639.048 139.581 642.12 138.645 645.213 137.729H645.233ZM623.971 142.959C625.925 142.409 627.878 141.86 629.831 141.31C631.154 141.005 632.456 140.68 633.758 140.354C634.063 140.273 634.368 140.212 634.653 140.15C632.72 140.741 630.787 141.331 628.875 141.941C627.227 142.287 625.599 142.613 623.951 142.959H623.971ZM604.581 148.738C607.694 147.761 610.827 146.825 613.961 145.889C616.667 145.279 619.393 144.689 622.12 144.119C619.007 145.116 615.914 146.154 612.821 147.171C610.054 147.68 607.307 148.209 604.561 148.738C604.561 148.738 604.54 148.738 604.52 148.738C604.52 148.738 604.54 148.738 604.561 148.738H604.581ZM598.579 149.43C600.349 149.003 602.099 148.575 603.869 148.168C601.875 148.799 599.86 149.43 597.866 150.061C596.035 150.427 594.204 150.814 592.373 151.18C594.428 150.59 596.503 150 598.558 149.43H598.579ZM582.891 153.948C585.72 153.337 588.568 152.706 591.417 152.116C588.243 153.154 585.109 154.212 581.976 155.271C579.086 155.8 576.197 156.329 573.308 156.878C576.482 155.881 579.697 154.904 582.891 153.948ZM567.53 157.468C569.422 157.021 571.334 156.573 573.247 156.125C571.151 156.776 569.056 157.448 566.98 158.12C565.007 158.506 563.033 158.913 561.08 159.32C563.216 158.689 565.373 158.079 567.53 157.489V157.468ZM551.924 162.027C554.894 161.376 557.845 160.745 560.836 160.134C557.621 161.192 554.426 162.271 551.232 163.37C548.221 163.899 545.23 164.448 542.239 165.018C545.453 164.001 548.689 163.004 551.924 162.027ZM536.664 165.507C538.678 165.018 540.713 164.55 542.747 164.082C540.53 164.774 538.332 165.486 536.135 166.198C534.039 166.605 531.943 167.033 529.868 167.44C532.126 166.789 534.385 166.137 536.664 165.486V165.507ZM530.336 168.091C527.101 169.17 523.866 170.268 520.651 171.408C517.558 171.937 514.465 172.487 511.393 173.056C514.628 172.019 517.884 171.001 521.139 170.004C524.191 169.353 527.243 168.702 530.316 168.091H530.336ZM498.941 175.458C501.26 174.786 503.6 174.115 505.94 173.443C508.117 172.934 510.294 172.426 512.471 171.917C510.172 172.649 507.894 173.382 505.615 174.135C503.377 174.562 501.159 175.01 498.941 175.458ZM500.06 175.987C496.784 177.086 493.529 178.225 490.273 179.385C487.079 179.935 483.905 180.484 480.751 181.054C484.027 179.996 487.303 178.958 490.619 177.94C493.753 177.269 496.906 176.618 500.06 175.987ZM475.42 181.359C477.719 180.83 480.019 180.281 482.338 179.772C479.958 180.545 477.577 181.319 475.217 182.092C472.857 182.54 470.476 183.008 468.136 183.476C470.557 182.763 472.999 182.051 475.441 181.359H475.42ZM469.886 183.883C466.569 185.022 463.273 186.162 459.997 187.342C456.722 187.892 453.446 188.441 450.19 189.031C453.527 187.932 456.864 186.874 460.242 185.836C463.436 185.165 466.651 184.513 469.886 183.883ZM437.453 191.432C439.936 190.7 442.438 189.967 444.941 189.255C447.342 188.685 449.763 188.136 452.184 187.586C449.722 188.38 447.281 189.194 444.839 190.008C442.357 190.476 439.895 190.944 437.433 191.432H437.453ZM439.753 191.738C436.436 192.877 433.119 194.058 429.844 195.258C426.466 195.808 423.109 196.378 419.752 196.968C423.129 195.848 426.507 194.77 429.925 193.712C433.181 193.04 436.456 192.389 439.753 191.738ZM414.604 197.11C417.147 196.52 419.691 195.93 422.254 195.36C419.691 196.194 417.147 197.029 414.624 197.904C412.04 198.372 409.477 198.86 406.933 199.369C409.477 198.596 412.04 197.863 414.624 197.13L414.604 197.11ZM400.077 200.671L399.507 200.855L398.774 201.017C399.222 200.895 399.649 200.793 400.097 200.671H400.077ZM384.43 204.925C387.055 204.314 389.7 203.724 392.345 203.134C389.74 203.988 387.136 204.863 384.552 205.739C381.846 206.227 379.16 206.736 376.474 207.244C379.119 206.451 381.765 205.677 384.43 204.904V204.925ZM370.513 208.323C370.126 208.445 369.719 208.567 369.333 208.689L368.092 208.954C368.905 208.75 369.699 208.526 370.533 208.323H370.513ZM346.076 215.161C348.823 214.326 351.59 213.512 354.358 212.719C357.043 212.108 359.749 211.498 362.476 210.907C359.81 211.782 357.186 212.678 354.561 213.594C351.712 214.102 348.905 214.631 346.097 215.161H346.076ZM340.99 215.975C340.4 216.158 339.81 216.341 339.199 216.524C338.67 216.626 338.141 216.728 337.612 216.85C338.731 216.565 339.85 216.259 340.99 215.975ZM309.351 224.277C308.578 224.44 307.825 224.583 307.052 224.745C308.476 224.379 309.9 223.992 311.345 223.647C310.673 223.85 310.002 224.074 309.351 224.298V224.277ZM324.611 221.408C321.701 221.917 318.792 222.446 315.902 222.995C318.71 222.141 321.559 221.286 324.407 220.472C327.174 219.841 329.942 219.231 332.749 218.62C330.023 219.515 327.317 220.452 324.611 221.408ZM339.952 218.905C336.31 219.454 332.688 220.045 329.087 220.635C332.485 219.475 335.923 218.335 339.403 217.236C342.943 216.524 346.504 215.832 350.085 215.161C346.687 216.382 343.309 217.623 339.952 218.905ZM355.273 216.768C351.285 217.277 347.338 217.826 343.411 218.396C347.155 216.992 350.939 215.629 354.744 214.306C358.61 213.614 362.496 212.963 366.423 212.332C362.679 213.777 358.956 215.242 355.273 216.748V216.768ZM370.615 214.957C366.443 215.405 362.293 215.893 358.162 216.402C362.069 214.815 366.037 213.288 370.024 211.782C374.094 211.152 378.204 210.561 382.334 209.992C378.387 211.599 374.48 213.268 370.615 214.957ZM385.813 213.451C381.541 213.838 377.288 214.245 373.056 214.693C377.085 212.942 381.134 211.253 385.244 209.585C389.435 209.035 393.667 208.506 397.92 207.997C393.85 209.768 389.801 211.579 385.813 213.431V213.451ZM400.89 212.251C396.577 212.556 392.263 212.902 388.011 213.268C392.141 211.375 396.292 209.524 400.504 207.712C404.736 207.224 409.009 206.776 413.302 206.369C409.131 208.282 404.98 210.256 400.89 212.251ZM415.703 211.314C411.389 211.538 407.096 211.803 402.844 212.108C407.035 210.073 411.267 208.079 415.54 206.146C419.792 205.739 424.086 205.372 428.399 205.026C424.126 207.082 419.894 209.178 415.723 211.314H415.703ZM430.271 210.643C425.998 210.806 421.746 211.009 417.534 211.213C421.786 209.056 426.1 206.939 430.434 204.863C434.666 204.538 438.898 204.233 443.171 203.968C438.817 206.146 434.523 208.364 430.271 210.623V210.643ZM431.98 210.582C436.294 208.303 440.668 206.064 445.063 203.866C449.214 203.622 453.405 203.378 457.597 203.174C453.181 205.454 448.807 207.794 444.473 210.175C440.282 210.277 436.11 210.399 431.98 210.561V210.582ZM270.936 381.217C264.14 386.365 257.365 391.554 250.63 396.805C296.593 316.829 363.147 255.759 444.656 210.948C448.705 210.846 452.774 210.765 456.884 210.724C381.358 253.5 317.978 309.686 270.916 381.217H270.936ZM272.686 379.873C319.789 308.913 383.107 253.154 458.431 210.704C462.337 210.663 466.244 210.623 470.191 210.623C400.606 250.732 340.603 301.648 293.195 364.672C286.318 369.678 279.482 374.745 272.686 379.853V379.873ZM276.125 390.008C281.761 381.542 287.62 373.3 293.684 365.242C300.398 360.337 307.174 355.474 313.949 350.671C307.621 358.18 301.456 365.852 295.474 373.707C288.963 379.08 282.513 384.534 276.104 390.028L276.125 390.008ZM279.502 397.069C284.853 389.296 290.367 381.685 296.024 374.216C302.27 369.047 308.557 363.939 314.885 358.893C308.883 365.873 303.023 372.975 297.306 380.24C291.303 385.775 285.362 391.392 279.482 397.069H279.502ZM282.92 400.468C287.783 393.793 292.748 387.22 297.855 380.749C303.348 375.661 308.883 370.614 314.478 365.649C309.127 371.652 303.877 377.737 298.709 383.923C293.379 389.377 288.129 394.871 282.941 400.468H282.92ZM291.71 393.63C294.192 390.537 296.695 387.484 299.238 384.452C301.7 381.929 304.183 379.426 306.665 376.943C301.619 382.438 296.614 387.993 291.71 393.63ZM318.995 363.858C317.937 364.876 316.879 365.873 315.821 366.89C312.281 370.329 308.781 373.789 305.302 377.269C309.839 371.978 314.437 366.748 319.117 361.599C323.838 357.448 328.619 353.337 333.401 349.267C328.538 354.07 323.736 358.933 318.995 363.858ZM333.726 350C335.435 348.311 337.144 346.622 338.874 344.953C339.688 344.159 340.522 343.386 341.336 342.592C343.452 340.842 345.588 339.092 347.704 337.342C343.004 341.514 338.345 345.726 333.726 350ZM364.246 323.056C359.058 327.147 353.91 331.298 348.803 335.49C353.747 330.85 358.752 326.272 363.798 321.754C368.682 318.213 373.585 314.692 378.509 311.213C373.728 315.12 368.987 319.068 364.266 323.056H364.246ZM381.113 310.012C383.392 308.16 385.712 306.329 388.011 304.497C389.761 303.276 391.511 302.096 393.26 300.875C389.191 303.887 385.142 306.939 381.093 309.992L381.113 310.012ZM411.979 287.301C406.994 290.618 402.03 293.976 397.086 297.354C402.193 293.386 407.34 289.458 412.529 285.592C417.453 282.58 422.356 279.568 427.3 276.597C422.173 280.118 417.066 283.699 411.979 287.301ZM441.889 267.928C439.264 269.576 436.66 271.225 434.055 272.894C435.337 272.018 436.619 271.164 437.901 270.309C439.244 269.515 440.566 268.722 441.909 267.928H441.889ZM463.517 254.497C458.736 257.224 453.975 260.012 449.214 262.78C476.397 244.933 504.333 228.124 532.961 212.312C534.365 212.393 535.748 212.454 537.152 212.535C512.207 225.865 487.628 239.845 463.517 254.497ZM489.419 239.988C489.419 239.988 489.358 240.008 489.337 240.028C489.337 240.028 489.398 240.008 489.419 239.988C505.635 230.566 522.014 221.449 538.576 212.596C539.288 212.637 540.001 212.678 540.733 212.719C523.499 221.55 506.388 230.647 489.419 239.988ZM542.035 212.047L539.817 211.925C545.433 208.933 551.069 205.983 556.725 203.052C557.702 203.093 558.679 203.134 559.635 203.174C553.755 206.105 547.875 209.076 542.035 212.067V212.047ZM561.019 202.483C560.022 202.442 559.045 202.401 558.068 202.36C563.704 199.45 569.34 196.581 575.017 193.732C576.218 193.752 577.438 193.793 578.639 193.813C572.759 196.662 566.878 199.552 561.019 202.483ZM580.104 193.122C578.883 193.081 577.642 193.06 576.401 193.02C582.057 190.191 587.713 187.403 593.39 184.656C594.835 184.656 596.259 184.676 597.724 184.697C591.844 187.485 585.964 190.293 580.104 193.122ZM599.27 183.964C597.826 183.964 596.381 183.923 594.937 183.923C600.593 181.176 606.27 178.49 611.946 175.804C613.594 175.804 615.243 175.783 616.891 175.783C611.01 178.49 605.13 181.217 599.291 183.964H599.27ZM618.518 175.03C616.87 175.03 615.222 175.03 613.554 175.051C619.21 172.405 624.866 169.78 630.564 167.196C632.395 167.155 634.246 167.114 636.098 167.074C630.218 169.699 624.378 172.344 618.518 175.03ZM637.848 166.3C635.996 166.341 634.145 166.382 632.293 166.422C637.929 163.858 643.585 161.335 649.262 158.832C651.297 158.75 653.331 158.669 655.366 158.588C649.527 161.131 643.687 163.695 637.848 166.28V166.3ZM657.238 157.794C655.203 157.855 653.169 157.957 651.114 158.038C656.729 155.576 662.365 153.134 668.001 150.732C670.219 150.61 672.437 150.468 674.655 150.346C668.836 152.808 663.037 155.291 657.238 157.794ZM676.689 149.491C674.472 149.613 672.254 149.735 670.056 149.857C675.631 147.497 681.247 145.157 686.842 142.837C689.223 142.654 691.604 142.47 693.984 142.308C688.206 144.668 682.427 147.069 676.669 149.491H676.689ZM696.202 141.412C693.821 141.575 691.441 141.738 689.06 141.921C694.595 139.642 700.149 137.403 705.704 135.185C708.247 134.941 710.79 134.717 713.334 134.493C707.616 136.772 701.899 139.072 696.202 141.392V141.412ZM715.755 133.557C713.212 133.781 710.689 134.005 708.166 134.229C713.639 132.051 719.133 129.914 724.626 127.798C727.312 127.493 729.998 127.208 732.683 126.923C727.027 129.1 721.391 131.319 715.775 133.537L715.755 133.557ZM751.972 119.597C746.417 121.673 740.843 123.789 735.308 125.926C732.643 126.19 729.957 126.475 727.292 126.76C732.704 124.684 738.116 122.649 743.528 120.655C746.336 120.289 749.144 119.943 751.972 119.597ZM749.551 115.69C752.623 115.201 755.716 114.733 758.809 114.286C753.661 116.137 748.513 118.03 743.386 119.923C740.415 120.309 737.445 120.696 734.474 121.103C739.5 119.271 744.525 117.481 749.551 115.69ZM745.522 116.341C740.68 118.071 735.837 119.821 731.015 121.591C727.861 122.019 724.728 122.487 721.615 122.934C726.356 121.245 731.117 119.577 735.878 117.928C739.093 117.379 742.307 116.85 745.543 116.341H745.522ZM748.289 112.922C744.078 114.326 739.886 115.751 735.695 117.196C732.643 117.704 729.591 118.233 726.559 118.783C730.689 117.419 734.84 116.056 738.991 114.733C742.084 114.123 745.176 113.512 748.289 112.922ZM738.808 114.021C736.57 114.469 734.332 114.916 732.093 115.364C735.064 114.489 738.035 113.614 741.005 112.739C743.223 112.23 745.461 111.722 747.679 111.233C744.708 112.149 741.758 113.085 738.808 114.021ZM760.131 107.428C758.829 107.814 757.547 108.201 756.265 108.588C755.289 108.791 754.312 109.015 753.356 109.218C754.861 108.791 756.387 108.384 757.893 107.957C758.646 107.774 759.399 107.59 760.151 107.407L760.131 107.428Z" fill="white"/>
</g>
<defs>
<clipPath id="clip0_2532_70583">
<rect width="763" height="407" fill="white"/>
</clipPath>
</defs>
</svg>